{
  "accessors": [
    {
      "bufferView": 2,
      "componentType": 5126,
      "count": 4,
      "max": [
        0.47308599948883057,
        -0.11939000338315964,
        0.22322799265384674
      ],
      "min": [
        -0.38702699542045593,
        -0.11939000338315964,
        -0.6535009741783142
      ],
      "type": "VEC3"
    },
    {
      "bufferView": 2,
      "byteOffset": 48,
      "componentType": 5126,
      "count": 4,
      "max": [
        0.0,
        1.0,
        0.0
      ],
      "min": [
        0.0,
        1.0,
        0.0
      ],
      "type": "VEC3"
    },
    {
      "bufferView": 3,
      "componentType": 5126,
      "count": 4,
      "max": [
        0.0074833715334534645,
        0.0,
        0.9999720454216003,
        1.0
      ],
      "min": [
        0.007483354769647121,
        0.0,
        0.9999719858169556,
        1.0
      ],
      "type": "VEC4"
    },
    {
      "bufferView": 1,
      "componentType": 5126,
      "count": 4,
      "max": [
        0.9980469942092896,
        0.9834089875221252
      ],
      "min": [
        0.0019529999699443579,
        0.0019529999699443579
      ],
      "type": "VEC2"
    },
    {
      "bufferView": 0,
      "componentType": 5125,
      "count": 6,
      "type": "SCALAR"
    },
    {
      "bufferView": 2,
      "byteOffset": 96,
      "componentType": 5126,
      "count": 2570,
      "max": [
        0.2313690036535263,
        0.5750160217285156,
        0.18860499560832977
      ],
      "min": [
        -0.24154700338840485,
        0.35316699743270874,
        -0.46666499972343445
      ],
      "type": "VEC3"
    },
    {
      "bufferView": 2,
      "byteOffset": 30936,
      "componentType": 5126,
      "count": 2570,
      "max": [
        1.0,
        1.0,
        1.0
      ],
      "min": [
        -1.0,
        -1.0,
        -1.0
      ],
      "type": "VEC3"
    },
    {
      "bufferView": 3,
      "byteOffset": 64,
      "componentType": 5126,
      "count": 2570,
      "max": [
        1.0,
        1.0,
        1.0,
        1.0
      ],
      "min": [
        -1.0,
        -1.0,
        -1.0,
        1.0
      ],
      "type": "VEC4"
    },
    {
      "bufferView": 1,
      "byteOffset": 32,
      "componentType": 5126,
      "count": 2570,
      "max": [
        0.9960939884185791,
        0.995015025138855
      ],
      "min": [
        0.0039059999398887157,
        0.0039059999398887157
      ],
      "type": "VEC2"
    },
    {
      "bufferView": 0,
      "byteOffset": 24,
      "componentType": 5125,
      "count": 3606,
      "type": "SCALAR"
    },
    {
      "bufferView": 2,
      "byteOffset": 61776,
      "componentType": 5126,
      "count": 2166,
      "max": [
        0.11581499874591827,
        0.1352590024471283,
        -0.40244200825691223
      ],
      "min": [
        -0.19717499613761902,
        -0.11890500038862228,
        -0.5598049759864807
      ],
      "type": "VEC3"
    },
    {
      "bufferView": 2,
      "byteOffset": 87768,
      "componentType": 5126,
      "count": 2166,
      "max": [
        1.0,
        1.0,
        1.0
      ],
      "min": [
        -1.0,
        -1.0,
        -1.0
      ],
      "type": "VEC3"
    },
    {
      "bufferView": 3,
      "byteOffset": 41184,
      "componentType": 5126,
      "count": 2166,
      "max": [
        1.0,
        1.0,
        1.0,
        1.0
      ],
      "min": [
        -1.0,
        -1.0,
        -1.0,
        1.0
      ],
      "type": "VEC4"
    },
    {
      "bufferView": 1,
      "byteOffset": 20592,
      "componentType": 5126,
      "count": 2166,
      "max": [
        0.9918699860572815,
        0.9960939884185791
      ],
      "min": [
        0.0039059999398887157,
        0.0039059999398887157
      ],
      "type": "VEC2"
    },
    {
      "bufferView": 0,
      "byteOffset": 14448,
      "componentType": 5125,
      "count": 3144,
      "type": "SCALAR"
    },
    {
      "bufferView": 2,
      "byteOffset": 113760,
      "componentType": 5126,
      "count": 1980,
      "max": [
        0.16435299813747406,
        0.2895269989967346,
        0.10627800226211548
      ],
      "min": [
        -0.1512490063905716,
        0.1731709986925125,
        -0.10767299681901932
      ],
      "type": "VEC3"
    },
    {
      "bufferView": 2,
      "byteOffset": 137520,
      "componentType": 5126,
      "count": 1980,
      "max": [
        0.9987471103668213,
        0.9466121196746826,
        0.9665302634239197
      ],
      "min": [
        -0.9987471103668213,
        -0.9467095136642456,
        -0.9997228980064392
      ],
      "type": "VEC3"
    },
    {
      "bufferView": 3,
      "byteOffset": 75840,
      "componentType": 5126,
      "count": 1980,
      "max": [
        0.9987472891807556,
        0.966630756855011,
        0.982712984085083,
        1.0
      ],
      "min": [
        -0.9990152716636658,
        -0.9915983080863953,
        -0.9585893154144287,
        -1.0
      ],
      "type": "VEC4"
    },
    {
      "bufferView": 1,
      "byteOffset": 37920,
      "componentType": 5126,
      "count": 1980,
      "max": [
        0.974727988243103,
        0.9960939884185791
      ],
      "min": [
        0.0039059999398887157,
        0.0039059999398887157
      ],
      "type": "VEC2"
    },
    {
      "bufferView": 0,
      "byteOffset": 27024,
      "componentType": 5125,
      "count": 2916,
      "type": "SCALAR"
    },
    {
      "bufferView": 2,
      "byteOffset": 161280,
      "componentType": 5126,
      "count": 4534,
      "max": [
        0.19831199944019318,
        0.40138599276542664,
        -0.13136200606822968
      ],
      "min": [
        -0.2381419986486435,
        -0.11932899802923203,
        -0.4257799983024597
      ],
      "type": "VEC3"
    },
    {
      "bufferView": 2,
      "byteOffset": 215688,
      "componentType": 5126,
      "count": 4534,
      "max": [
        1.0,
        1.0,
        1.0
      ],
      "min": [
        -1.0,
        -1.0,
        -1.0
      ],
      "type": "VEC3"
    },
    {
      "bufferView": 3,
      "byteOffset": 107520,
      "componentType": 5126,
      "count": 4534,
      "max": [
        1.0,
        1.0,
        1.0,
        1.0
      ],
      "min": [
        -1.0,
        -1.0,
        -1.0,
        -1.0
      ],
      "type": "VEC4"
    },
    {
      "bufferView": 1,
      "byteOffset": 53760,
      "componentType": 5126,
      "count": 4534,
      "max": [
        0.9910820126533508,
        0.9960939884185791
      ],
      "min": [
        0.0039059999398887157,
        0.0039059999398887157
      ],
      "type": "VEC2"
    },
    {
      "bufferView": 0,
      "byteOffset": 38688,
      "componentType": 5125,
      "count": 6348,
      "type": "SCALAR"
    },
    {
      "bufferView": 2,
      "byteOffset": 270096,
      "componentType": 5126,
      "count": 5336,
      "max": [
        0.382205992937088,
        0.39643600583076477,
        -0.11965399980545044
      ],
      "min": [
        0.18551500141620636,
        -0.1215440034866333,
        -0.41140300035476685
      ],
      "type": "VEC3"
    },
    {
      "bufferView": 2,
      "byteOffset": 334128,
      "componentType": 5126,
      "count": 5336,
      "max": [
        1.0,
        1.0,
        1.0
      ],
      "min": [
        -1.0,
        -1.0,
        -1.0
      ],
      "type": "VEC3"
    },
    {
      "bufferView": 3,
      "byteOffset": 180064,
      "componentType": 5126,
      "count": 5336,
      "max": [
        1.0,
        1.0,
        1.0,
        1.0
      ],
      "min": [
        -1.0,
        -1.0,
        -1.0,
        -1.0
      ],
      "type": "VEC4"
    },
    {
      "bufferView": 1,
      "byteOffset": 90032,
      "componentType": 5126,
      "count": 5336,
      "max": [
        0.9914559721946716,
        0.9960939884185791
      ],
      "min": [
        0.0039059999398887157,
        0.0039059999398887157
      ],
      "type": "VEC2"
    },
    {
      "bufferView": 0,
      "byteOffset": 64080,
      "componentType": 5125,
      "count": 7860,
      "type": "SCALAR"
    },
    {
      "bufferView": 2,
      "byteOffset": 398160,
      "componentType": 5126,
      "count": 7200,
      "max": [
        0.20615699887275696,
        0.40239399671554565,
        0.14211399853229523
      ],
      "min": [
        -0.20615699887275696,
        0.15425999462604523,
        -0.14491599798202515
      ],
      "type": "VEC3"
    },
    {
      "bufferView": 2,
      "byteOffset": 484560,
      "componentType": 5126,
      "count": 7200,
      "max": [
        1.0,
        1.0,
        1.0
      ],
      "min": [
        -1.0,
        -1.0,
        -1.0
      ],
      "type": "VEC3"
    },
    {
      "bufferView": 3,
      "byteOffset": 265440,
      "componentType": 5126,
      "count": 7200,
      "max": [
        1.0,
        1.0,
        1.0,
        1.0
      ],
      "min": [
        -1.0,
        -1.0,
        -1.0,
        -1.0
      ],
      "type": "VEC4"
    },
    {
      "bufferView": 1,
      "byteOffset": 132720,
      "componentType": 5126,
      "count": 7200,
      "max": [
        0.9934939742088318,
        0.9960939884185791
      ],
      "min": [
        0.0039059999398887157,
        0.0039059999398887157
      ],
      "type": "VEC2"
    },
    {
      "bufferView": 0,
      "byteOffset": 95520,
      "componentType": 5125,
      "count": 9900,
      "type": "SCALAR"
    },
    {
      "bufferView": 2,
      "byteOffset": 570960,
      "componentType": 5126,
      "count": 1636,
      "max": [
        0.36114901304244995,
        0.14975599944591522,
        0.03796200081706047
      ],
      "min": [
        0.1794240027666092,
        -0.12043800204992294,
        -0.14656800031661987
      ],
      "type": "VEC3"
    },
    {
      "bufferView": 2,
      "byteOffset": 590592,
      "componentType": 5126,
      "count": 1636,
      "max": [
        1.0,
        1.0,
        1.0
      ],
      "min": [
        -1.0,
        -1.0,
        -1.0
      ],
      "type": "VEC3"
    },
    {
      "bufferView": 3,
      "byteOffset": 380640,
      "componentType": 5126,
      "count": 1636,
      "max": [
        1.0,
        1.0,
        1.0,
        1.0
      ],
      "min": [
        -1.0,
        -1.0,
        -1.0,
        -1.0
      ],
      "type": "VEC4"
    },
    {
      "bufferView": 1,
      "byteOffset": 190320,
      "componentType": 5126,
      "count": 1636,
      "max": [
        0.9922829866409302,
        0.9960939884185791
      ],
      "min": [
        0.0039059999398887157,
        0.0039059999398887157
      ],
      "type": "VEC2"
    },
    {
      "bufferView": 0,
      "byteOffset": 135120,
      "componentType": 5125,
      "count": 2388,
      "type": "SCALAR"
    },
    {
      "bufferView": 2,
      "byteOffset": 610224,
      "componentType": 5126,
      "count": 1694,
      "max": [
        0.2056719958782196,
        0.15744100511074066,
        0.10647299885749817
      ],
      "min": [
        -0.2054239958524704,
        -0.12315800040960312,
        -0.1441819965839386
      ],
      "type": "VEC3"
    },
    {
      "bufferView": 2,
      "byteOffset": 630552,
      "componentType": 5126,
      "count": 1694,
      "max": [
        1.0,
        1.0,
        1.0
      ],
      "min": [
        -1.0,
        -1.0,
        -1.0
      ],
      "type": "VEC3"
    },
    {
      "bufferView": 3,
      "byteOffset": 406816,
      "componentType": 5126,
      "count": 1694,
      "max": [
        1.0,
        1.0,
        1.0,
        1.0
      ],
      "min": [
        -1.0,
        -1.0,
        -1.0,
        -1.0
      ],
      "type": "VEC4"
    },
    {
      "bufferView": 1,
      "byteOffset": 203408,
      "componentType": 5126,
      "count": 1694,
      "max": [
        0.9929670095443726,
        0.9960939884185791
      ],
      "min": [
        0.0039059999398887157,
        0.0039059999398887157
      ],
      "type": "VEC2"
    },
    {
      "bufferView": 0,
      "byteOffset": 144672,
      "componentType": 5125,
      "count": 2568,
      "type": "SCALAR"
    }
  ],
  "asset": {
    "extras": {
      "author": "Andy Woodhead (https://sketchfab.com/Andywoodhead)",
      "license": "CC-BY-4.0 (http://creativecommons.org/licenses/by/4.0/)",
      "source": "https://sketchfab.com/3d-models/romano-british-house-in-medieval-london-free-a13b6ace269945a78918518d69378eef",
      "title": "Romano-British House in Medieval London - free"
    },
    "generator": "Sketchfab-15.20.0",
    "version": "2.0"
  },
  "bufferViews": [
    {
      "buffer": 0,
      "byteLength": 154944,
      "name": "floatBufferViews",
      "target": 34963
    },
    {
      "buffer": 0,
      "byteLength": 216960,
      "byteOffset": 154944,
      "byteStride": 8,
      "name": "floatBufferViews",
      "target": 34962
    },
    {
      "buffer": 0,
      "byteLength": 650880,
      "byteOffset": 371904,
      "byteStride": 12,
      "name": "floatBufferViews",
      "target": 34962
    },
    {
      "buffer": 0,
      "byteLength": 433920,
      "byteOffset": 1022784,
      "byteStride": 16,
      "name": "floatBufferViews",
      "target": 34962
    }
  ],
  "buffers": [
    {
      "byteLength": 1456704,
      "uri": "scene.bin"
    }
  ],
  "images": [
    {
      "uri": "textures/House_01_baseColor.jpeg"
    },
    {
      "uri": "textures/House_01_metallicRoughness.png"
    },
    {
      "uri": "textures/House_01_normal.png"
    },
    {
      "uri": "textures/House_02_baseColor.jpeg"
    },
    {
      "uri": "textures/House_02_metallicRoughness.png"
    },
    {
      "uri": "textures/House_02_normal.png"
    },
    {
      "uri": "textures/Balcony_baseColor.jpeg"
    },
    {
      "uri": "textures/Balcony_metallicRoughness.png"
    },
    {
      "uri": "textures/Balcony_normal.png"
    },
    {
      "uri": "textures/House_03_baseColor.jpeg"
    },
    {
      "uri": "textures/House_03_metallicRoughness.png"
    },
    {
      "uri": "textures/House_03_normal.png"
    },
    {
      "uri": "textures/House_04_baseColor.jpeg"
    },
    {
      "uri": "textures/House_04_metallicRoughness.png"
    },
    {
      "uri": "textures/House_04_normal.png"
    },
    {
      "uri": "textures/Chairs_baseColor.jpeg"
    },
    {
      "uri": "textures/Chairs_metallicRoughness.png"
    },
    {
      "uri": "textures/Chairs_normal.png"
    },
    {
      "uri": "textures/House_05_baseColor.jpeg"
    },
    {
      "uri": "textures/House_05_metallicRoughness.png"
    },
    {
      "uri": "textures/House_05_normal.png"
    },
    {
      "uri": "textures/Roof_baseColor.jpeg"
    },
    {
      "uri": "textures/Roof_metallicRoughness.png"
    },
    {
      "uri": "textures/Roof_normal.png"
    },
    {
      "uri": "textures/Ground_baseColor.png"
    },
    {
      "uri": "textures/Ground_metallicRoughness.png"
    },
    {
      "uri": "textures/Ground_normal.png"
    }
  ],
  "materials": [
    {
      "doubleSided": true,
      "name": "House_01",
      "normalTexture": {
        "index": 2
      },
      "occlusionTexture": {
        "index": 1
      },
      "pbrMetallicRoughness": {
        "baseColorTexture": {
          "index": 0
        },
        "metallicRoughnessTexture": {
          "index": 1
        }
      }
    },
    {
      "doubleSided": true,
      "name": "House_02",
      "normalTexture": {
        "index": 5
      },
      "occlusionTexture": {
        "index": 4
      },
      "pbrMetallicRoughness": {
        "baseColorTexture": {
          "index": 3
        },
        "metallicRoughnessTexture": {
          "index": 4
        }
      }
    },
    {
      "doubleSided": true,
      "name": "Balcony",
      "normalTexture": {
        "index": 8
      },
      "occlusionTexture": {
        "index": 7
      },
      "pbrMetallicRoughness": {
        "baseColorTexture": {
          "index": 6
        },
        "metallicRoughnessTexture": {
          "index": 7
        }
      }
    },
    {
      "doubleSided": true,
      "name": "House_03",
      "normalTexture": {
        "index": 11
      },
      "occlusionTexture": {
        "index": 10
      },
      "pbrMetallicRoughness": {
        "baseColorTexture": {
          "index": 9
        },
        "metallicRoughnessTexture": {
          "index": 10
        }
      }
    },
    {
      "doubleSided": true,
      "name": "House_04",
      "normalTexture": {
        "index": 14
      },
      "occlusionTexture": {
        "index": 13
      },
      "pbrMetallicRoughness": {
        "baseColorTexture": {
          "index": 12
        },
        "metallicRoughnessTexture": {
          "index": 13
        }
      }
    },
    {
      "doubleSided": true,
      "name": "Chairs",
      "normalTexture": {
        "index": 17
      },
      "occlusionTexture": {
        "index": 16
      },
      "pbrMetallicRoughness": {
        "baseColorTexture": {
          "index": 15
        },
        "metallicRoughnessTexture": {
          "index": 16
        }
      }
    },
    {
      "doubleSided": true,
      "name": "House_05",
      "normalTexture": {
        "index": 20
      },
      "occlusionTexture": {
        "index": 19
      },
      "pbrMetallicRoughness": {
        "baseColorTexture": {
          "index": 18
        },
        "metallicRoughnessTexture": {
          "index": 19
        }
      }
    },
    {
      "doubleSided": true,
      "name": "Roof",
      "normalTexture": {
        "index": 23
      },
      "occlusionTexture": {
        "index": 22
      },
      "pbrMetallicRoughness": {
        "baseColorTexture": {
          "index": 21
        },
        "metallicRoughnessTexture": {
          "index": 22
        }
      }
    },
    {
      "alphaMode": "BLEND",
      "doubleSided": true,
      "name": "Ground",
      "normalTexture": {
        "index": 26
      },
      "occlusionTexture": {
        "index": 25
      },
      "pbrMetallicRoughness": {
        "baseColorTexture": {
          "index": 24
        },
        "metallicRoughnessTexture": {
          "index": 25
        }
      }
    }
  ],
  "meshes": [
    {
      "name": "defaultMaterial",
      "primitives": [
        {
          "attributes": {
            "NORMAL": 1,
            "POSITION": 0,
            "TANGENT": 2,
            "TEXCOORD_0": 3
          },
          "indices": 4,
          "material": 8,
          "mode": 4
        }
      ]
    },
    {
      "name": "defaultMaterial",
      "primitives": [
        {
          "attributes": {
            "NORMAL": 6,
            "POSITION": 5,
            "TANGENT": 7,
            "TEXCOORD_0": 8
          },
          "indices": 9,
          "material": 7,
          "mode": 4
        }
      ]
    },
    {
      "name": "defaultMaterial",
      "primitives": [
        {
          "attributes": {
            "NORMAL": 11,
            "POSITION": 10,
            "TANGENT": 12,
            "TEXCOORD_0": 13
          },
          "indices": 14,
          "material": 6,
          "mode": 4
        }
      ]
    },
    {
      "name": "defaultMaterial",
      "primitives": [
        {
          "attributes": {
            "NORMAL": 16,
            "POSITION": 15,
            "TANGENT": 17,
            "TEXCOORD_0": 18
          },
          "indices": 19,
          "material": 5,
          "mode": 4
        }
      ]
    },
    {
      "name": "defaultMaterial",
      "primitives": [
        {
          "attributes": {
            "NORMAL": 21,
            "POSITION": 20,
            "TANGENT": 22,
            "TEXCOORD_0": 23
          },
          "indices": 24,
          "material": 4,
          "mode": 4
        }
      ]
    },
    {
      "name": "defaultMaterial",
      "primitives": [
        {
          "attributes": {
            "NORMAL": 26,
            "POSITION": 25,
            "TANGENT": 27,
            "TEXCOORD_0": 28
          },
          "indices": 29,
          "material": 3,
          "mode": 4
        }
      ]
    },
    {
      "name": "defaultMaterial",
      "primitives": [
        {
          "attributes": {
            "NORMAL": 31,
            "POSITION": 30,
            "TANGENT": 32,
            "TEXCOORD_0": 33
          },
          "indices": 34,
          "material": 2,
          "mode": 4
        }
      ]
    },
    {
      "name": "defaultMaterial",
      "primitives": [
        {
          "attributes": {
            "NORMAL": 36,
            "POSITION": 35,
            "TANGENT": 37,
            "TEXCOORD_0": 38
          },
          "indices": 39,
          "material": 1,
          "mode": 4
        }
      ]
    },
    {
      "name": "defaultMaterial",
      "primitives": [
        {
          "attributes": {
            "NORMAL": 41,
            "POSITION": 40,
            "TANGENT": 42,
            "TEXCOORD_0": 43
          },
          "indices": 44,
          "material": 0,
          "mode": 4
        }
      ]
    }
  ],
  "nodes": [
    {
      "children": [
        1
      ],
      "matrix": [
        1.0,
        0.0,
        0.0,
        0.0,
        0.0,
        2.220446049250313e-16,
        -1.0,
        0.0,
        0.0,
        1.0,
        2.220446049250313e-16,
        0.0,
        0.0,
        0.0,
        0.0,
        1.0
      ],
      "name": "Sketchfab_model"
    },
    {
      "children": [
        2,
        4,
        6,
        8,
        10,
        12,
        14,
        16,
        18
      ],
      "matrix": [
        1.0,
        0.0,
        0.0,
        0.0,
        0.0,
        -4.371139006309477e-08,
        0.999999999999999,
        0.0,
        0.0,
        -0.999999999999999,
        -4.371139006309477e-08,
        0.0,
        0.0,
        0.0,
        0.0,
        1.0
      ],
      "name": "Collada visual scene group"
    },
    {
      "children": [
        3
      ],
      "name": "Ground"
    },
    {
      "mesh": 0,
      "name": "defaultMaterial"
    },
    {
      "children": [
        5
      ],
      "name": "Roof"
    },
    {
      "mesh": 1,
      "name": "defaultMaterial"
    },
    {
      "children": [
        7
      ],
      "name": "House"
    },
    {
      "mesh": 2,
      "name": "defaultMaterial"
    },
    {
      "children": [
        9
      ],
      "name": "Chairs"
    },
    {
      "mesh": 3,
      "name": "defaultMaterial"
    },
    {
      "children": [
        11
      ],
      "name": "House"
    },
    {
      "mesh": 4,
      "name": "defaultMaterial"
    },
    {
      "children": [
        13
      ],
      "name": "House"
    },
    {
      "mesh": 5,
      "name": "defaultMaterial"
    },
    {
      "children": [
        15
      ],
      "name": "Balcony"
    },
    {
      "mesh": 6,
      "name": "defaultMaterial"
    },
    {
      "children": [
        17
      ],
      "name": "House"
    },
    {
      "mesh": 7,
      "name": "defaultMaterial"
    },
    {
      "children": [
        19
      ],
      "name": "House"
    },
    {
      "mesh": 8,
      "name": "defaultMaterial"
    }
  ],
  "samplers": [
    {
      "magFilter": 9729,
      "minFilter": 9987,
      "wrapS": 10497,
      "wrapT": 10497
    }
  ],
  "scene": 0,
  "scenes": [
    {
      "name": "Sketchfab_Scene",
      "nodes": [
        0
      ]
    }
  ],
  "textures": [
    {
      "sampler": 0,
      "source": 0
    },
    {
      "sampler": 0,
      "source": 1
    },
    {
      "sampler": 0,
      "source": 2
    },
    {
      "sampler": 0,
      "source": 3
    },
    {
      "sampler": 0,
      "source": 4
    },
    {
      "sampler": 0,
      "source": 5
    },
    {
      "sampler": 0,
      "source": 6
    },
    {
      "sampler": 0,
      "source": 7
    },
    {
      "sampler": 0,
      "source": 8
    },
    {
      "sampler": 0,
      "source": 9
    },
    {
      "sampler": 0,
      "source": 10
    },
    {
      "sampler": 0,
      "source": 11
    },
    {
      "sampler": 0,
      "source": 12
    },
    {
      "sampler": 0,
      "source": 13
    },
    {
      "sampler": 0,
      "source": 14
    },
    {
      "sampler": 0,
      "source": 15
    },
    {
      "sampler": 0,
      "source": 16
    },
    {
      "sampler": 0,
      "source": 17
    },
    {
      "sampler": 0,
      "source": 18
    },
    {
      "sampler": 0,
      "source": 19
    },
    {
      "sampler": 0,
      "source": 20
    },
    {
      "sampler": 0,
      "source": 21
    },
    {
      "sampler": 0,
      "source": 22
    },
    {
      "sampler": 0,
      "source": 23
    },
    {
      "sampler": 0,
      "source": 24
    },
    {
      "sampler": 0,
      "source": 25
    },
    {
      "sampler": 0,
      "source": 26
    }
  ]
}
